<?xml version="1.0" encoding="iso-8859-1"?>
<!-- Generator: Adobe Illustrator 19.0.0, SVG Export Plug-In . SVG Version: 6.00 Build 0)  -->
<svg xmlns="http://www.w3.org/2000/svg" xmlns:xlink="http://www.w3.org/1999/xlink" version="1.1" id="Capa_1" x="0px" y="0px" viewBox="0 0 511.997 511.997" style="enable-background:new 0 0 511.997 511.997;" xml:space="preserve" width="512px" height="512px">
<g>
	<g>
		<g>
			<path d="M511.323,241.582l-50.073-133.51c-9.896-26.406-27.542-48.635-51.01-64.292c-22.031-14.688-47.677-22.448-74.146-22.448     H42.667C19.135,21.332,0,40.467,0,63.999v384c0,23.531,19.135,42.667,42.667,42.667h247.031c5.302,0,9.802-3.896,10.563-9.156     c9.708-67.75,68.646-118.844,137.073-118.844c6.24,0,12.333,0.563,18.365,1.365c4.729,0.667,9.448-2.052,11.281-6.531     l44.229-108.125C512.219,246.884,512.26,244.103,511.323,241.582z M288,405.332H53.333c-5.896,0-10.667-4.771-10.667-10.667     s4.771-10.667,10.667-10.667H288c5.896,0,10.667,4.771,10.667,10.667S293.896,405.332,288,405.332z M64,255.999V85.332h272.094     c13.802,0,27.167,4.042,38.646,11.698c12.229,8.156,21.427,19.74,26.583,33.51l42.854,114.281l-3.802,11.156L64,255.999z      M437.333,319.999h-64c-5.896,0-10.667-4.771-10.667-10.667c0-5.896,4.771-10.667,10.667-10.667h64     c5.896,0,10.667,4.771,10.667,10.667C448,315.228,443.229,319.999,437.333,319.999z" fill="#7d7d7d"/>
			<path d="M146.208,109.79c-4.167-4.167-10.917-4.167-15.083,0l-42.667,42.667c-4.167,4.167-4.167,10.917,0,15.083     c2.083,2.083,4.813,3.125,7.542,3.125c2.729,0,5.458-1.042,7.542-3.125l42.667-42.667     C150.375,120.707,150.375,113.957,146.208,109.79z" fill="#7d7d7d"/>
			<path d="M173.792,120.457l-64,64c-4.167,4.167-4.167,10.917,0,15.083c2.083,2.083,4.813,3.125,7.542,3.125     c2.729,0,5.458-1.042,7.542-3.125l64-64c4.167-4.167,4.167-10.917,0-15.083C184.708,116.29,177.958,116.29,173.792,120.457z" fill="#7d7d7d"/>
		</g>
	</g>
</g>
<g>
</g>
<g>
</g>
<g>
</g>
<g>
</g>
<g>
</g>
<g>
</g>
<g>
</g>
<g>
</g>
<g>
</g>
<g>
</g>
<g>
</g>
<g>
</g>
<g>
</g>
<g>
</g>
<g>
</g>
</svg>
